<svg xmlns="http://www.w3.org/2000/svg" version="1.1" xmlns:xlink="http://www.w3.org/1999/xlink" xmlns:svgjs="http://svgjs.dev/svgjs" width="1500" height="1500" viewBox="0 0 1500 1500"><rect width="1500" height="1500" fill="#000000"></rect><g transform="matrix(0.6666666666666666,0,0,0.6666666666666666,249.39393939393938,435.9903225806451)"><svg viewBox="0 0 396 248" data-background-color="#ffffff" preserveAspectRatio="xMidYMid meet" height="939" width="1500" xmlns="http://www.w3.org/2000/svg" xmlns:xlink="http://www.w3.org/1999/xlink"><g id="tight-bounds" transform="matrix(1,0,0,1,0.2400000000000091,0.4000000000000057)"><svg viewBox="0 0 395.52 247.2" height="247.2" width="395.52"><g><svg></svg></g><g><svg viewBox="0 0 395.52 247.2" height="247.2" width="395.52"><g transform="matrix(1,0,0,1,75.54432,63.811401481946305)"><svg viewBox="0 0 244.43135999999998 119.57719703610738" height="119.57719703610738" width="244.43135999999998"><g><svg viewBox="0 0 244.43135999999998 119.57719703610738" height="119.57719703610738" width="244.43135999999998"><g><svg viewBox="0 0 416.6443942234779 203.82478263857146" height="119.57719703610738" width="244.43135999999998"><g transform="matrix(1,0,0,1,181.29084583478098,0)"><svg viewBox="0 0 235.35354838869694 203.82478263857146" height="203.82478263857146" width="235.35354838869694"><g id="textblocktransform"><svg viewBox="0 0 235.35354838869694 203.82478263857146" height="203.82478263857146" width="235.35354838869694" id="textblock"><g><svg viewBox="0 0 235.35354838869694 151.825483872" height="151.825483872" width="235.35354838869694"><g transform="matrix(1,0,0,1,0,0)"><svg width="235.35354838869694" viewBox="-0.6 -35.45 73.39 47.35" height="151.825483872" data-palette-color="#398378"><g class="wordmark-text-0" data-fill-palette-color="primary" id="text-0"><path d="M12.35-23L16.6-23 16.6-0.45Q16.6 5.1 13.45 8.3L13.45 8.3Q11 10.8 6.85 11.6L6.85 11.6Q5.25 11.9 3.35 11.9L3.35 11.9Q2.15 11.9 1.05 11.85L1.05 11.85-0.6 9.8-0.6 8.2Q0.85 8.4 2.55 8.4L2.55 8.4Q12.35 8.4 12.35-0.6L12.35-0.6 12.35-23ZM30.9 5.8L30.9 8 20.95 10.75 20.1 9.65 20.1 8.8 30.9 5.8ZM30.14-35.45L32.3-35.45 32.3-29.95Q32.3-29 31.7-28.35L31.7-28.35Q31.05-27.6 29.95-27.6L29.95-27.6 27.59-27.6 26.95-28.3 26.89-28.3Q26.74-28.1 26.49-27.9L26.49-27.9Q26.04-27.6 25.49-27.6L25.49-27.6 22.45-27.6Q21.39-27.6 20.74-28.3L20.74-28.3Q20.09-28.95 20.09-29.95L20.09-29.95 20.09-33.35 21.2-34.25 22.24-34.25 22.24-30.1Q22.24-29.8 22.39-29.65L22.39-29.65Q22.64-29.35 22.99-29.35L22.99-29.35 24.39-29.35Q24.74-29.35 24.95-29.6L24.95-29.6Q25.09-29.8 25.09-30.1L25.09-30.1 25.09-34.25 27.29-34.25 27.29-29.35 29.45-29.35Q29.8-29.35 29.95-29.6L29.95-29.6Q30.14-29.8 30.14-30.1L30.14-30.1 30.14-35.45ZM27.09-19.95L27.09-23.3Q28.89-23.6 30.94-23.6L30.94-23.6Q36.49-23.6 39.89-20.25L39.89-20.25Q42.94-17.15 42.94-12.4L42.94-12.4 42.94-4.75Q42.94-4.1 42.84-3.55L42.84-3.55 44.24-3.55 44.24 0 43.49 0 42.09-1.75 41.94-1.75Q41.54-1.25 41.04-0.85L41.04-0.85Q39.84 0 38.44 0L38.44 0 22.04 0 22.04-3.55 36.84-3.55Q38.69-3.55 38.69-5.45L38.69-5.45 38.69-11.8Q38.69-15.35 36.54-17.7L36.54-17.7Q34.24-20.1 29.44-20.15L29.44-20.15Q28.04-20.15 27.09-19.95L27.09-19.95ZM54.84-33.3L54.84-31.1 44.89-28.35 44.04-29.45 44.04-30.3 54.84-33.3ZM60.34-34L60.34-34Q61.34-34 62.06-33.27 62.79-32.55 62.79-31.55L62.79-31.55Q62.79-30.5 62.06-29.78 61.34-29.05 60.34-29.05L60.34-29.05Q59.29-29.05 58.56-29.78 57.84-30.5 57.84-31.55L57.84-31.55Q57.84-32.55 58.56-33.27 59.29-34 60.34-34ZM66.39-34L66.39-34Q67.44-34 68.14-33.27 68.84-32.55 68.84-31.55L68.84-31.55Q68.84-30.5 68.14-29.78 67.44-29.05 66.39-29.05L66.39-29.05Q65.39-29.05 64.66-29.78 63.94-30.5 63.94-31.55L63.94-31.55Q63.94-32.55 64.66-33.27 65.39-34 66.39-34ZM43.84-3.55L55.04-3.55Q53.14-5.3 52.24-7.9L52.24-7.9Q51.54-10 51.54-12.05L51.54-12.05Q51.54-17.4 54.74-20.55L54.74-20.55Q57.89-23.6 63.29-23.6L63.29-23.6Q67.39-23.6 69.84-21.5L69.84-21.5Q72.69-19.1 72.79-14.5L72.79-14.5 72.79-4.75Q72.79-2.8 71.44-1.4L71.44-1.4Q70.14 0 68.29 0L68.29 0 43.84 0 43.84-3.55ZM68.49-5.45L68.49-14.5Q68.49-17.3 66.84-18.8L66.84-18.8Q65.54-20 63.29-20L63.29-20Q59.14-20 57.19-17.1L57.19-17.1Q55.79-15.1 55.79-11.9L55.79-11.9Q55.84-8.5 57.99-6.1L57.99-6.1Q60.24-3.55 63.94-3.55L63.94-3.55 66.64-3.55Q68.49-3.55 68.49-5.45L68.49-5.45Z" fill="#ffffff" data-fill-palette-color="primary"></path></g></svg></g></svg></g><g transform="matrix(1,0,0,1,0,187.66783680256628)"><svg viewBox="0 0 138.17606825900398 16.156945836005175" height="16.156945836005175" width="138.17606825900398"><g transform="matrix(1,0,0,1,0,0)"><svg width="138.17606825900398" viewBox="3.45 -36.55 414.3 48.449999999999996" height="16.156945836005175" data-palette-color="#398378"><path d="M20.95-24.35L20.95-24.35Q21.95-24.35 22.68-23.63 23.4-22.9 23.4-21.85L23.4-21.85Q23.4-20.85 22.68-20.13 21.95-19.4 20.95-19.4L20.95-19.4Q19.9-19.4 19.2-20.13 18.5-20.85 18.5-21.85L18.5-21.85Q18.5-22.9 19.2-23.63 19.9-24.35 20.95-24.35ZM27-24.35L27-24.35Q28.05-24.35 28.78-23.63 29.5-22.9 29.5-21.85L29.5-21.85Q29.5-20.85 28.78-20.13 28.05-19.4 27-19.4L27-19.4Q26-19.4 25.28-20.13 24.55-20.85 24.55-21.85L24.55-21.85Q24.55-22.9 25.28-23.63 26-24.35 27-24.35ZM40.15-23L44.4-23 44.4-4.75Q44.4-2.95 43.3-1.65L43.3-1.65Q41.9 0 39.9 0L39.9 0 11.3 0Q8.4 0 6.3-1.9L6.3-1.9Q3.45-4.35 3.45-8.25L3.45-8.25 3.45-17.65 5.6-19.4 7.7-19.4 7.7-8.25Q7.7-6.3 9.1-4.95L9.1-4.95Q10.45-3.55 12.5-3.55L12.5-3.55 38.25-3.55Q40.15-3.55 40.15-5.45L40.15-5.45 40.15-23ZM51.3-35.8L55.55-35.8 55.55-5.45Q55.55-4.65 56.05-4.1L56.05-4.1Q56.6-3.55 57.45-3.55L57.45-3.55 58.1-3.55 58.1 0 55.8 0Q54.2 0 53-1.05L53-1.05Q51.3-2.5 51.3-4.75L51.3-4.75 51.3-35.8ZM66.75-23L71-23 71-4.75Q71-4.15 70.85-3.55L70.85-3.55 73.5-3.55 73.5 0 71.55 0 70.1-1.75 69.95-1.75Q68.6 0 66.45 0L66.45 0 57.75 0 57.75-3.55 64.85-3.55Q65.65-3.55 66.15-4.05L66.15-4.05Q66.75-4.6 66.75-5.45L66.75-5.45 66.75-23ZM68.5 5.2L68.5 5.2Q69.55 5.2 70.27 5.93 71 6.65 71 7.65L71 7.65Q71 8.7 70.27 9.43 69.55 10.15 68.5 10.15L68.5 10.15Q67.5 10.15 66.77 9.43 66.05 8.7 66.05 7.65L66.05 7.65Q66.05 6.65 66.77 5.93 67.5 5.2 68.5 5.2ZM79.24-27L95.74-36.55 95.74-32.65 83.19-25.2Q90.99-23.1 95.49-17.4L95.49-17.4Q99.59-12.2 99.59-5.4L99.59-5.4Q99.59-3 98.34-1.5 97.09 0 95.09 0L95.09 0 73.14 0 73.14-3.55 93.44-3.55Q95.39-3.55 95.39-5.55L95.39-5.55Q95.14-10.75 92.34-14.7L92.34-14.7Q88.34-20.5 79.54-21.7L79.54-21.7Q79.24-21.7 79.24-22.05L79.24-22.05 79.24-27ZM114.69-23L118.94-23 118.94-3.55 121.49-3.55 121.49 0 118.94 0Q118.79 6.25 114.49 9.35L114.49 9.35Q111.04 11.9 105.54 11.9L105.54 11.9Q104.69 11.9 103.39 11.85L103.39 11.85 101.74 9.8 101.74 8.2Q103.19 8.4 104.89 8.4L104.89 8.4Q114.69 8.4 114.69-0.6L114.69-0.6 114.69-23ZM121.14-3.55L130.99-3.55Q128.94-6.9 128.94-11.2L128.94-11.2Q128.94-17.25 132.34-20.55L132.34-20.55Q135.39-23.45 140.39-23.55L140.39-23.55Q143.99-23.55 146.34-22L146.34-22Q149.94-19.6 149.94-14.5L149.94-14.5 149.94-5.45Q149.94-4.75 150.29-4.25L150.29-4.25Q150.74-3.6 151.49-3.55L151.49-3.55 151.59-3.55 151.59 0 150.34 0Q148.09 0 146.74-1.75L146.74-1.75Q144.04 1.5 139.89 1.5L139.89 1.5Q135.54 1.5 132.34-1.75L132.34-1.75 132.24-1.75 130.84 0 121.14 0 121.14-3.55ZM145.69-4.7L145.69-14.5Q145.69-17.1 144.04-18.65L144.04-18.65Q142.59-20 140.29-20L140.29-20Q137.09-20 135.14-17.63 133.19-15.25 133.19-11.4L133.19-11.4Q133.19-7.35 135.24-4.65L135.24-4.65Q137.19-2.05 140.14-2.05L140.14-2.05Q143.04-2.05 145.69-4.7L145.69-4.7ZM160.19-35.8L164.44-35.8 164.44-4.75Q164.44-2.8 163.14-1.45L163.14-1.45Q161.79 0 159.89 0L159.89 0 151.19 0 151.19-3.55 158.29-3.55Q159.24-3.55 159.74-4.2L159.74-4.2Q160.19-4.75 160.19-5.45L160.19-5.45 160.19-35.8ZM171.33-35.8L175.58-35.8 175.58-0.5 173.43 1.25 171.33 1.25 171.33-35.8ZM200.58-23L204.83-23 204.83-0.45Q204.83 5.1 201.68 8.3L201.68 8.3Q199.23 10.8 195.08 11.6L195.08 11.6Q193.48 11.9 191.58 11.9L191.58 11.9Q190.38 11.9 189.28 11.85L189.28 11.85 187.63 9.8 187.63 8.2Q189.08 8.4 190.78 8.4L190.78 8.4Q200.58 8.4 200.58-0.6L200.58-0.6 200.58-23ZM208.33-35.8L212.58-35.8 212.58-0.5 210.43 1.25 208.33 1.25 208.33-35.8ZM228.37-23L232.62-23 232.62-3.55 235.17-3.55 235.17 0 232.62 0Q232.47 6.25 228.17 9.35L228.17 9.35Q224.72 11.9 219.22 11.9L219.22 11.9Q218.37 11.9 217.07 11.85L217.07 11.85 215.42 9.8 215.42 8.2Q216.87 8.4 218.57 8.4L218.57 8.4Q228.37 8.4 228.37-0.6L228.37-0.6 228.37-23ZM260.82-34L260.82-34Q261.82-34 262.55-33.27 263.27-32.55 263.27-31.55L263.27-31.55Q263.27-30.5 262.55-29.78 261.82-29.05 260.82-29.05L260.82-29.05Q259.77-29.05 259.05-29.78 258.32-30.5 258.32-31.55L258.32-31.55Q258.32-32.55 259.05-33.27 259.77-34 260.82-34ZM245.77-23L245.77-12.05Q252.62-23.65 263.62-23.65L263.62-23.65Q269.67-23.65 273.32-19.9L273.32-19.9Q276.62-16.55 276.62-11.4L276.62-11.4 276.62-4.75Q276.62-2.65 275.17-1.25L275.17-1.25Q273.87 0 272.12 0L272.12 0 232.52 0 232.52-3.55 241.52-3.55 241.52-23 245.77-23ZM272.37-5.45L272.37-11.85Q272.32-15.9 269.37-18.1L269.37-18.1Q266.87-19.95 263.12-19.95L263.12-19.95Q259.07-19.95 255.47-17.6L255.47-17.6Q249.47-13.6 245.77-3.55L245.77-3.55 270.47-3.55Q272.37-3.55 272.37-5.45L272.37-5.45ZM282.87-35.8L287.12-35.8 287.12-0.5 284.97 1.25 282.87 1.25 282.87-35.8ZM312.11-23L316.36-23 316.36-3.55 318.91-3.55 318.91 0 316.36 0Q316.21 6.25 311.91 9.35L311.91 9.35Q308.46 11.9 302.96 11.9L302.96 11.9Q302.11 11.9 300.81 11.85L300.81 11.85 299.16 9.8 299.16 8.2Q300.61 8.4 302.31 8.4L302.31 8.4Q312.11 8.4 312.11-0.6L312.11-0.6 312.11-23ZM327.56-23L331.81-23 331.81-4.75Q331.81-2.9 330.61-1.55L330.61-1.55Q329.26 0 327.26 0L327.26 0 318.56 0 318.56-3.55 325.66-3.55Q326.51-3.55 327.06-4.15L327.06-4.15Q327.56-4.65 327.56-5.45L327.56-5.45 327.56-23ZM322.81 5.2L322.81 5.2Q323.81 5.2 324.53 5.93 325.26 6.65 325.26 7.65L325.26 7.65Q325.26 8.7 324.53 9.43 323.81 10.15 322.81 10.15L322.81 10.15Q321.76 10.15 321.03 9.43 320.31 8.7 320.31 7.65L320.31 7.65Q320.31 6.65 321.03 5.93 321.76 5.2 322.81 5.2ZM328.86 5.2L328.86 5.2Q329.91 5.2 330.61 5.93 331.31 6.65 331.31 7.65L331.31 7.65Q331.31 8.7 330.61 9.43 329.91 10.15 328.86 10.15L328.86 10.15Q327.86 10.15 327.13 9.43 326.41 8.7 326.41 7.65L326.41 7.65Q326.41 6.65 327.13 5.93 327.86 5.2 328.86 5.2ZM342.26-19.95L342.26-23.3Q344.06-23.6 346.11-23.6L346.11-23.6Q351.66-23.6 355.06-20.25L355.06-20.25Q358.11-17.15 358.11-12.4L358.11-12.4 358.11-4.75Q358.11-4.1 358.01-3.55L358.01-3.55 359.41-3.55 359.41 0 358.66 0 357.26-1.75 357.11-1.75Q356.71-1.25 356.21-0.85L356.21-0.85Q355.01 0 353.61 0L353.61 0 337.21 0 337.21-3.55 352.01-3.55Q353.86-3.55 353.86-5.45L353.86-5.45 353.86-11.8Q353.86-15.35 351.71-17.7L351.71-17.7Q349.41-20.1 344.61-20.15L344.61-20.15Q343.21-20.15 342.26-19.95L342.26-19.95ZM374.7-34L374.7-34Q375.7-34 376.43-33.27 377.15-32.55 377.15-31.55L377.15-31.55Q377.15-30.5 376.43-29.78 375.7-29.05 374.7-29.05L374.7-29.05Q373.7-29.05 372.98-29.78 372.25-30.5 372.25-31.55L372.25-31.55Q372.25-32.55 372.98-33.27 373.7-34 374.7-34ZM380.75-34L380.75-34Q381.81-34 382.53-33.27 383.25-32.55 383.25-31.55L383.25-31.55Q383.25-30.5 382.53-29.78 381.81-29.05 380.75-29.05L380.75-29.05Q379.75-29.05 379.03-29.78 378.31-30.5 378.31-31.55L378.31-31.55Q378.31-32.55 379.03-33.27 379.75-34 380.75-34ZM359-3.55L369.85-3.55Q366.7-7 366.7-12.05L366.7-12.05Q366.7-16.9 369.35-20L369.35-20Q372.4-23.6 377.45-23.6L377.45-23.6Q381.5-23.6 384.35-21.2L384.35-21.2Q388.25-17.95 388.25-12.05L388.25-12.05Q388.25-7.05 385.1-3.55L385.1-3.55 389.45-3.55 389.45 0 382.25 0 381.7 0Q378.75 0 377.56-0.4L377.56-0.4 377.35-0.4Q376.15 0 373.2 0L373.2 0 372.6 0 359 0 359-3.55ZM377.45-20L377.45-20Q374.4-20 372.68-17.85 370.95-15.7 370.95-11.9L370.95-11.9Q370.95-8.45 372.83-6.05 374.7-3.65 377.45-3.55L377.45-3.55Q380.2-3.65 382.08-6.05 383.95-8.45 383.95-11.9L383.95-11.9Q383.95-15.7 382.23-17.85 380.5-20 377.45-20ZM394.25-34L394.25-34Q395.3-34 396-33.27 396.7-32.55 396.7-31.55L396.7-31.55Q396.7-30.5 396-29.78 395.3-29.05 394.25-29.05L394.25-29.05Q393.25-29.05 392.53-29.78 391.8-30.5 391.8-31.55L391.8-31.55Q391.8-32.55 392.53-33.27 393.25-34 394.25-34ZM400.35-34L400.35-34Q401.35-34 402.08-33.27 402.8-32.55 402.8-31.55L402.8-31.55Q402.8-30.5 402.08-29.78 401.35-29.05 400.35-29.05L400.35-29.05Q399.3-29.05 398.58-29.78 397.85-30.5 397.85-31.55L397.85-31.55Q397.85-32.55 398.58-33.27 399.3-34 400.35-34ZM398.1-23L402.35-23 402.35-4.75Q402.35-4.15 402.2-3.55L402.2-3.55 404.85-3.55 404.85 0 402.9 0 401.45-1.75 401.3-1.75Q399.95 0 397.8 0L397.8 0 389.1 0 389.1-3.55 396.2-3.55Q397-3.55 397.5-4.05L397.5-4.05Q398.1-4.6 398.1-5.45L398.1-5.45 398.1-23ZM413.5-35.8L417.75-35.8 417.75-4.75Q417.75-2.8 416.45-1.45L416.45-1.45Q415.1 0 413.2 0L413.2 0 404.5 0 404.5-3.55 411.6-3.55Q412.55-3.55 413.05-4.2L413.05-4.2Q413.5-4.75 413.5-5.45L413.5-5.45 413.5-35.8Z" opacity="1" transform="matrix(1,0,0,1,0,0)" fill="#ffffff" class="slogan-text-1" data-fill-palette-color="secondary" id="text-1"></path></svg></g></svg></g></svg></g></svg></g><g transform="matrix(1,0,0,1,0,66.36899181279117)"><svg viewBox="0 0 145.4484929042147 71.08679901298912" height="71.08679901298912" width="145.4484929042147"><g><svg xmlns="http://www.w3.org/2000/svg" xmlns:xlink="http://www.w3.org/1999/xlink" version="1.1" x="0" y="0" viewBox="2.638 26.91029309660183 94.48888888888891 46.18069613020012" enable-background="new 0 0 100 100" xml:space="preserve" height="71.08679901298912" width="145.4484929042147" class="icon-icon-0" data-fill-palette-color="accent" id="icon-0"><path d="M3.094 58.528C3.55 63.457 6.61 66.468 10.763 68.293 14.913 70.119 20.706 69.708 24.629 69.71 28.556 69.708 31.154 68.477 31.154 68.477S35.145 68.729 40.013 68.913C40.056 69.026 40.439 69.79 41.987 69.886 43.406 69.973 44.057 69.26 44.218 69.049 44.548 69.057 44.879 69.067 45.21 69.073 52.049 69.208 66.053 68.84 66.143 68.842 65.324 70.439 65.093 73.04 65.099 73.084 66.786 73.267 69.02 69.796 68.931 69.753 75.089 70.486 79.607 70.439 82.253 70.257 84.895 70.072 88.864 69.931 92.427 65.966 96.48 61.455 97.123 53.597 97.126 50.008 97.128 50.008 97.126 50.002 97.126 50.002S97.123 49.994 97.126 49.994C97.123 46.402 96.48 38.547 92.424 34.033 88.864 30.076 84.895 29.929 82.253 29.744 79.604 29.563 75.089 29.517 68.933 30.248 69.023 30.201 66.786 26.738 65.096 26.917 65.099 26.965 65.326 29.566 66.141 31.157 66.053 31.162 52.049 30.791 45.207 30.93 44.881 30.94 44.552 30.945 44.228 30.952 44.072 30.749 43.424 30.019 41.99 30.11 40.391 30.208 40.031 31.019 40.007 31.085 35.143 31.272 31.154 31.523 31.154 31.523S28.555 30.292 24.629 30.292C20.708 30.295 14.913 29.882 10.761 31.711 6.612 33.532 3.547 36.541 3.092 41.472 2.638 46.385 2.641 47.18 2.641 49.99 2.643 49.995 2.641 49.998 2.638 50.001 2.641 50.006 2.641 50.014 2.641 50.014 2.641 52.821 2.643 53.616 3.094 58.528M94.29 48.917C94.529 48.917 94.729 49.403 94.729 49.993 94.727 50.589 94.529 51.068 94.29 51.068 94.049 51.068 93.86 50.589 93.862 49.993 93.857 49.4 94.049 48.917 94.29 48.917M88.202 32.394C88.68 32.049 89.808 32.796 90.723 34.067 91.632 35.332 91.98 36.648 91.505 36.992 91.016 37.336 89.892 36.589 88.979 35.318 88.069 34.049 87.717 32.738 88.202 32.394M88.979 64.658C89.892 63.392 91.021 62.644 91.502 62.986 91.98 63.335 91.63 64.64 90.72 65.911 89.808 67.182 88.677 67.924 88.203 67.583 87.719 67.236 88.069 65.929 88.979 64.658M31.244 67.667L20.799 66.392S26.224 65.65 30.287 65.287C34.344 64.923 50.546 65.194 54.332 65.652 57.848 66.069 70.57 67.671 70.57 67.671 61.218 68.046 31.244 67.667 31.244 67.667M73.72 33.101L73.799 33.14C76.91 34.707 79.176 37.642 80.521 41.857 81.677 45.501 81.778 49.007 81.778 49.994 81.775 50.983 81.68 54.489 80.524 58.134 79.176 62.35 76.914 65.282 73.799 66.852L73.722 66.886 73.712 66.849C73.069 66.722 64.167 65.526 59.433 64.894L59.344 64.883 59.375 64.804C59.387 64.79 59.931 63.358 60.47 60.83 60.966 58.496 61.559 54.718 61.559 49.994 61.559 45.268 60.969 41.489 60.47 39.154 59.928 36.626 59.387 35.201 59.375 35.186L59.344 35.108 59.43 35.093C64.167 34.465 73.072 33.267 73.709 33.145zM31.244 32.31S61.215 31.931 70.57 32.31C70.57 32.31 57.841 33.905 54.329 34.331 50.546 34.788 34.349 35.056 30.285 34.692 26.225 34.333 20.799 33.585 20.799 33.585zM13.464 37.195L13.477 37.182 13.494 37.178 20.564 36.894C22.333 36.824 24.1 36.748 25.427 36.702 26.614 36.66 27.174 36.64 27.448 36.64 27.52 36.637 27.573 36.634 27.608 36.642L27.62 36.637 27.622 36.642C27.702 36.649 27.705 36.664 27.71 36.69L27.722 36.747 27.685 36.755C25.997 39.927 25.979 49.887 25.981 49.988 25.979 50.091 25.997 60.051 27.69 63.22L27.72 63.232 27.712 63.287C27.705 63.309 27.702 63.327 27.622 63.337V63.343L27.608 63.335C27.425 63.347 26.915 63.33 25.427 63.275 24.102 63.227 22.332 63.156 20.566 63.083L13.494 62.799 13.473 62.791C13.319 62.733 9.709 61.314 9.687 50.708V50.597C9.674 47.397 10.01 39.674 13.464 37.195M8.936 52.829H8.341V47.148H8.936zM6.486 36.053C7.125 34.886 7.992 34.138 8.436 34.378 8.878 34.62 8.719 35.758 8.082 36.924 7.451 38.09 6.574 38.839 6.134 38.598 5.692 38.362 5.85 37.218 6.486 36.053M6.134 61.38C6.572 61.139 7.448 61.888 8.082 63.054 8.723 64.216 8.881 65.361 8.436 65.603 7.994 65.839 7.123 65.091 6.484 63.925 5.853 62.759 5.692 61.615 6.134 61.38" fill="#ffffff" data-fill-palette-color="accent"></path></svg></g></svg></g></svg></g></svg></g></svg></g><g><path d="M0 123.6c0-68.262 55.338-123.6 123.6-123.6 42.144 0 79.362 21.093 101.673 53.298l-4.927 0c-21.741-29.868-56.977-49.281-96.746-49.282-66.044 0-119.584 53.539-119.584 119.584 0 66.044 53.539 119.584 119.584 119.584 39.77 0 75.005-19.414 96.746-49.282h4.927c-22.31 32.205-59.528 53.298-101.673 53.298-68.262 0-123.6-55.338-123.6-123.6z" fill="#ffffff" stroke="transparent" data-fill-palette-color="tertiary"></path></g></svg></g><defs></defs></svg><rect width="395.52" height="247.2" fill="none" stroke="none" visibility="hidden"></rect></g></svg></g></svg>